<svg width="40" height="40" viewBox="0 0 40 40" fill="none" xmlns="http://www.w3.org/2000/svg">
  <!-- Call of Duty inspired logo -->
  <defs>
    <linearGradient id="logoGradient" x1="0%" y1="0%" x2="100%" y2="100%">
      <stop offset="0%" style="stop-color:#6fb96f;stop-opacity:1" />
      <stop offset="100%" style="stop-color:#4a7c59;stop-opacity:1" />
    </linearGradient>
    <filter id="glow">
      <feGaussianBlur stdDeviation="2" result="coloredBlur"/>
      <feMerge> 
        <feMergeNode in="coloredBlur"/>
        <feMergeNode in="SourceGraphic"/>
      </feMerge>
    </filter>
  </defs>
  
  <!-- Outer tactical ring -->
  <circle cx="20" cy="20" r="18" fill="none" stroke="url(#logoGradient)" stroke-width="2" opacity="0.8"/>
  
  <!-- Inner tactical elements -->
  <circle cx="20" cy="20" r="12" fill="none" stroke="url(#logoGradient)" stroke-width="1.5" opacity="0.6"/>
  
  <!-- Central star/crosshair -->
  <g transform="translate(20,20)" filter="url(#glow)">
    <!-- Vertical line -->
    <line x1="0" y1="-8" x2="0" y2="8" stroke="#6fb96f" stroke-width="2" stroke-linecap="round"/>
    <!-- Horizontal line -->
    <line x1="-8" y1="0" x2="8" y2="0" stroke="#6fb96f" stroke-width="2" stroke-linecap="round"/>
    <!-- Diagonal lines -->
    <line x1="-6" y1="-6" x2="-3" y2="-3" stroke="#6fb96f" stroke-width="1.5" stroke-linecap="round"/>
    <line x1="6" y1="-6" x2="3" y2="-3" stroke="#6fb96f" stroke-width="1.5" stroke-linecap="round"/>
    <line x1="-6" y1="6" x2="-3" y2="3" stroke="#6fb96f" stroke-width="1.5" stroke-linecap="round"/>
    <line x1="6" y1="6" x2="3" y2="3" stroke="#6fb96f" stroke-width="1.5" stroke-linecap="round"/>
    
    <!-- Central dot -->
    <circle cx="0" cy="0" r="2" fill="#6fb96f"/>
  </g>
  
  <!-- Tactical corner markers -->
  <g opacity="0.7">
    <!-- Top-left -->
    <path d="M6 6 L6 10 M6 6 L10 6" stroke="#6fb96f" stroke-width="1.5" stroke-linecap="round" fill="none"/>
    <!-- Top-right -->
    <path d="M34 6 L34 10 M34 6 L30 6" stroke="#6fb96f" stroke-width="1.5" stroke-linecap="round" fill="none"/>
    <!-- Bottom-left -->
    <path d="M6 34 L6 30 M6 34 L10 34" stroke="#6fb96f" stroke-width="1.5" stroke-linecap="round" fill="none"/>
    <!-- Bottom-right -->
    <path d="M34 34 L34 30 M34 34 L30 34" stroke="#6fb96f" stroke-width="1.5" stroke-linecap="round" fill="none"/>
  </g>
  
  <!-- Animated pulse effect -->
  <circle cx="20" cy="20" r="15" fill="none" stroke="#6fb96f" stroke-width="0.5" opacity="0.3">
    <animate attributeName="r" values="15;20;15" dur="3s" repeatCount="indefinite"/>
    <animate attributeName="opacity" values="0.3;0;0.3" dur="3s" repeatCount="indefinite"/>
  </circle>
</svg>
