<svg width="1920" height="1080" viewBox="0 0 1920 1080" fill="none" xmlns="http://www.w3.org/2000/svg">
  <!-- Tactical background pattern -->
  <defs>
    <pattern id="grid" width="50" height="50" patternUnits="userSpaceOnUse">
      <path d="M 50 0 L 0 0 0 50" fill="none" stroke="#4a7c59" stroke-width="0.5" opacity="0.3"/>
    </pattern>
    
    <pattern id="hexPattern" width="60" height="52" patternUnits="userSpaceOnUse">
      <polygon points="30,1 52,15 52,37 30,51 8,37 8,15" fill="none" stroke="#4a7c59" stroke-width="0.3" opacity="0.2"/>
    </pattern>
    
    <radialGradient id="tacGradient" cx="50%" cy="50%" r="50%">
      <stop offset="0%" style="stop-color:#2d5a3d;stop-opacity:0.8"/>
      <stop offset="50%" style="stop-color:#1a1f2e;stop-opacity:0.6"/>
      <stop offset="100%" style="stop-color:#0f1419;stop-opacity:0.4"/>
    </radialGradient>
    
    <filter id="noise">
      <feTurbulence baseFrequency="0.9" numOctaves="4" result="noise"/>
      <feColorMatrix in="noise" type="saturate" values="0"/>
      <feComponentTransfer>
        <feFuncA type="discrete" tableValues="0 .1 0 .2 0 .1 0 .05 0"/>
      </feComponentTransfer>
      <feComposite operator="over" in2="SourceGraphic"/>
    </filter>
  </defs>
  
  <!-- Base gradient background -->
  <rect width="1920" height="1080" fill="url(#tacGradient)"/>
  
  <!-- Grid overlay -->
  <rect width="1920" height="1080" fill="url(#grid)"/>
  
  <!-- Hexagonal pattern overlay -->
  <rect width="1920" height="1080" fill="url(#hexPattern)"/>
  
  <!-- Tactical lines and elements -->
  <g opacity="0.1" stroke="#6fb96f" stroke-width="1" fill="none">
    <!-- Diagonal scan lines -->
    <g>
      <line x1="0" y1="0" x2="1920" y2="540" opacity="0.1"/>
      <line x1="0" y1="180" x2="1920" y2="720" opacity="0.1"/>
      <line x1="0" y1="360" x2="1920" y2="900" opacity="0.1"/>
      <line x1="0" y1="540" x2="1920" y2="1080" opacity="0.1"/>
      <line x1="0" y1="720" x2="1740" y2="1080" opacity="0.1"/>
      <line x1="0" y1="900" x2="1560" y2="1080" opacity="0.1"/>
    </g>
    
    <!-- Reverse diagonal lines -->
    <g>
      <line x1="1920" y1="0" x2="0" y2="540" opacity="0.08"/>
      <line x1="1920" y1="180" x2="0" y2="720" opacity="0.08"/>
      <line x1="1920" y1="360" x2="0" y2="900" opacity="0.08"/>
      <line x1="1920" y1="540" x2="0" y2="1080" opacity="0.08"/>
      <line x1="1740" y1="0" x2="0" y2="580" opacity="0.08"/>
      <line x1="1560" y1="0" x2="0" y2="480" opacity="0.08"/>
    </g>
  </g>
  
  <!-- Tactical corner elements -->
  <g opacity="0.2" stroke="#6fb96f" stroke-width="2" fill="none">
    <!-- Top-left corner -->
    <g>
      <path d="M50 50 L50 150 M50 50 L150 50"/>
      <path d="M70 70 L70 130 M70 70 L130 70"/>
      <circle cx="100" cy="100" r="30"/>
    </g>
    
    <!-- Top-right corner -->
    <g>
      <path d="M1870 50 L1870 150 M1870 50 L1770 50"/>
      <path d="M1850 70 L1850 130 M1850 70 L1790 70"/>
      <circle cx="1820" cy="100" r="30"/>
    </g>
    
    <!-- Bottom-left corner -->
    <g>
      <path d="M50 1030 L50 930 M50 1030 L150 1030"/>
      <path d="M70 1010 L70 950 M70 1010 L130 1010"/>
      <circle cx="100" cy="980" r="30"/>
    </g>
    
    <!-- Bottom-right corner -->
    <g>
      <path d="M1870 1030 L1870 930 M1870 1030 L1770 1030"/>
      <path d="M1850 1010 L1850 950 M1850 1010 L1790 1010"/>
      <circle cx="1820" cy="980" r="30"/>
    </g>
  </g>
  
  <!-- Central tactical elements -->
  <g transform="translate(960,540)" opacity="0.15" stroke="#6fb96f" fill="none">
    <!-- Large central crosshair -->
    <circle r="200" stroke-width="1"/>
    <circle r="150" stroke-width="1"/>
    <circle r="100" stroke-width="2"/>
    
    <!-- Crosshair lines -->
    <line x1="-250" y1="0" x2="250" y2="0" stroke-width="1"/>
    <line x1="0" y1="-250" x2="0" y2="250" stroke-width="1"/>
    
    <!-- Diagonal indicators -->
    <line x1="-180" y1="-180" x2="-120" y2="-120" stroke-width="2"/>
    <line x1="180" y1="-180" x2="120" y2="-120" stroke-width="2"/>
    <line x1="-180" y1="180" x2="-120" y2="120" stroke-width="2"/>
    <line x1="180" y1="180" x2="120" y2="120" stroke-width="2"/>
  </g>
  
  <!-- Scattered tactical markers -->
  <g opacity="0.1" fill="#6fb96f">
    <circle cx="300" cy="200" r="3"/>
    <circle cx="1600" cy="300" r="3"/>
    <circle cx="400" cy="800" r="3"/>
    <circle cx="1500" cy="900" r="3"/>
    <circle cx="200" cy="600" r="3"/>
    <circle cx="1700" cy="400" r="3"/>
    <circle cx="800" cy="150" r="3"/>
    <circle cx="1200" cy="950" r="3"/>
  </g>
  
  <!-- Subtle noise overlay -->
  <rect width="1920" height="1080" filter="url(#noise)" opacity="0.05"/>
</svg>
